<svg version="1.1" xmlns="http://www.w3.org/2000/svg" viewBox="0 0 987.23828125 489.66015625" width="1974.4765625" height="979.3203125">
  <!-- svg-source:excalidraw -->
  
  <defs>
    <style class="style-fonts">
      @font-face {
        font-family: "Virgil";
        src: url("https://excalidraw.com/Virgil.woff2");
      }
      @font-face {
        font-family: "Cascadia";
        src: url("https://excalidraw.com/Cascadia.woff2");
      }
    </style>
  </defs>
  <rect x="0" y="0" width="987.23828125" height="489.66015625" fill="#ffffff"></rect><g stroke-linecap="round" transform="translate(10 170.99609375000006) rotate(0 86.814453125 86.81445312499997)"><path d="M93.3 0.89 C104.57 0.29, 116.72 3.9, 127.03 9.15 C137.34 14.4, 147.96 22.93, 155.16 32.38 C162.37 41.84, 167.49 54.39, 170.28 65.86 C173.06 77.34, 173.77 89.55, 171.87 101.22 C169.97 112.9, 165.39 126.17, 158.86 135.93 C152.32 145.7, 142.66 153.71, 132.64 159.81 C122.63 165.92, 110.35 170.87, 98.77 172.54 C87.18 174.21, 74.42 172.87, 63.14 169.83 C51.86 166.8, 40.06 161.81, 31.07 154.32 C22.08 146.84, 14.29 135.51, 9.22 124.92 C4.16 114.34, 1.33 102.63, 0.68 90.81 C0.03 79, 1.18 65.02, 5.34 54.05 C9.49 43.08, 16.89 33.22, 25.63 24.99 C34.37 16.77, 45.52 8.66, 57.79 4.7 C70.06 0.74, 91.37 1.23, 99.24 1.24 C107.1 1.25, 105.23 3.25, 104.98 4.76 M71.93 2.36 C83.11 -0.93, 98.35 -0.09, 109.64 2.87 C120.94 5.84, 130.85 12.87, 139.7 20.17 C148.54 27.47, 156.87 36.53, 162.71 46.66 C168.55 56.8, 174 69.29, 174.74 80.98 C175.49 92.68, 171.51 105.57, 167.18 116.84 C162.85 128.12, 157.03 140.35, 148.77 148.63 C140.5 156.92, 128.68 162.31, 117.61 166.53 C106.54 170.76, 93.87 174.35, 82.33 173.98 C70.78 173.6, 58.65 169.38, 48.35 164.29 C38.06 159.2, 27.89 152.18, 20.57 143.42 C13.26 134.65, 7.9 123.31, 4.47 111.71 C1.05 100.11, -1.29 85.64, 0.01 73.81 C1.32 61.97, 6.1 50.47, 12.31 40.71 C18.53 30.95, 27.14 22.01, 37.3 15.26 C47.45 8.5, 67.55 2.37, 73.26 0.18 C78.98 -2.01, 71.66 0.63, 71.58 2.11" stroke="#000000" stroke-width="1" fill="none"></path></g><g stroke-linecap="round" transform="translate(285.34375 180.0234375) rotate(0 70.91015625 70.91015625)"><path d="M-0.51 -0.38 C36.46 -0.85, 75.41 -1.42, 143.34 1.94 M-0.81 0.3 C31.22 -2.11, 62.92 -1.21, 141.6 0.94 M141.85 -1.09 C140.93 30.54, 141.97 62.99, 143.66 140.85 M142.61 0.68 C141.11 48.32, 142.17 97.39, 142.56 141.19 M141.67 140.87 C93.09 142.59, 45.51 142.09, -0.35 140.56 M141.9 142.74 C104.2 142.47, 65.67 140.78, -0.71 142.01 M-0.28 143.06 C-0.36 103.56, -0.82 66.62, -1.08 -1.4 M0.58 141.59 C-0.02 109.53, 0.69 77.77, -0.97 -0.92" stroke="#000000" stroke-width="1" fill="none"></path></g><g transform="translate(307.5 227.078125) rotate(0 51 25)"><text x="51" y="18" font-family="Virgil, Segoe UI Emoji" font-size="20px" fill="#000000" text-anchor="middle" style="white-space: pre;" direction="ltr">SignerNode</text><text x="51" y="43" font-family="Virgil, Segoe UI Emoji" font-size="20px" fill="#000000" text-anchor="middle" style="white-space: pre;" direction="ltr">Worker</text></g><g stroke-linecap="round"><g transform="translate(191.65937966747674 251.65112325548233) rotate(0 43.927468324153324 -0.7200810856207482)"><path d="M1.04 -1.9 C21.02 1.05, 45.59 0.43, 86.87 0.36 M0.98 -0.75 C20.75 0.18, 40.13 -0.77, 85.07 -1.03" stroke="#000000" stroke-width="1" fill="none"></path></g><g transform="translate(191.65937966747674 251.65112325548233) rotate(0 43.927468324153324 -0.7200810856207482)"><path d="M58.03 7.62 C63.01 7.75, 72.61 4.67, 85.95 0.32 M57.97 8.77 C63.91 7.33, 69.56 4.11, 84.15 -1.06" stroke="#000000" stroke-width="1" fill="none"></path></g><g transform="translate(191.65937966747674 251.65112325548233) rotate(0 43.927468324153324 -0.7200810856207482)"><path d="M57.82 -12.9 C62.95 -7.46, 72.61 -5.25, 85.95 0.32 M57.76 -11.75 C63.92 -8.32, 69.61 -6.67, 84.15 -1.06" stroke="#000000" stroke-width="1" fill="none"></path></g></g><mask></mask><g stroke-linecap="round" transform="translate(536.296875 46.644531250000085) rotate(0 74.03515625 74.03515624999996)"><path d="M106.5 8.17 C116.11 11.82, 125.33 20.72, 132.06 29.19 C138.79 37.66, 144.53 48.62, 146.89 59.01 C149.26 69.4, 148.81 81.34, 146.24 91.52 C143.66 101.71, 138.32 111.97, 131.45 120.11 C124.58 128.25, 114.92 135.76, 105.01 140.37 C95.11 144.99, 82.82 147.86, 72.01 147.79 C61.19 147.72, 49.38 144.69, 40.11 139.94 C30.83 135.19, 22.88 127.55, 16.34 119.27 C9.81 110.99, 3.27 100.63, 0.9 90.26 C-1.48 79.89, -0.57 67.46, 2.11 57.04 C4.79 46.61, 10.13 35.96, 16.99 27.7 C23.84 19.45, 33.59 12.27, 43.24 7.51 C52.89 2.75, 63.94 -1.15, 74.9 -0.85 C85.86 -0.55, 103.37 7.21, 109.03 9.31 C114.68 11.4, 109.52 10.87, 108.81 11.72 M42.79 6.6 C51.57 1.35, 64.71 0.9, 75.34 1.24 C85.96 1.58, 96.93 3.88, 106.55 8.63 C116.16 13.39, 126.46 21.73, 133.01 29.75 C139.56 37.78, 143.7 46.41, 145.87 56.78 C148.05 67.14, 148.62 81.37, 146.05 91.95 C143.48 102.54, 137.09 112.13, 130.46 120.3 C123.82 128.47, 115.83 136.2, 106.24 140.97 C96.64 145.74, 83.68 148.79, 72.87 148.93 C62.06 149.07, 50.9 146.84, 41.38 141.81 C31.85 136.78, 22.16 127.53, 15.73 118.75 C9.31 109.97, 4.93 99.21, 2.84 89.14 C0.76 79.07, 1.09 68.77, 3.22 58.34 C5.36 47.91, 9.38 35.1, 15.66 26.57 C21.94 18.04, 36.2 9.94, 40.92 7.16 C45.64 4.38, 43.07 8.62, 43.97 9.88" stroke="#000000" stroke-width="1" fill="none"></path></g><g stroke-linecap="round" transform="translate(543.1171875 301.8046875) rotate(0 73.818359375 73.81835937500006)"><path d="M50.1 3.75 C59.21 -0.68, 71.12 -1.4, 81.8 -0.02 C92.48 1.37, 105.12 6.38, 114.18 12.05 C123.25 17.72, 130.75 25.05, 136.19 34.01 C141.64 42.97, 145.52 55.03, 146.83 65.83 C148.15 76.62, 147.49 88.73, 144.08 98.79 C140.68 108.85, 133.99 118.8, 126.39 126.17 C118.79 133.54, 108.59 139.59, 98.49 142.99 C88.39 146.39, 76.67 147.79, 65.81 146.56 C54.95 145.34, 42.4 141.4, 33.34 135.65 C24.27 129.89, 16.89 121.21, 11.42 112.05 C5.96 102.88, 1.88 91.33, 0.57 80.65 C-0.73 69.98, 0.15 57.86, 3.58 47.99 C7 38.12, 12.35 29.22, 21.12 21.46 C29.9 13.71, 48.94 4.6, 56.25 1.48 C63.55 -1.65, 64.46 1.27, 64.96 2.7 M102.73 6.74 C112.62 9.34, 122.45 15.44, 129.39 23.14 C136.33 30.83, 141.25 42.47, 144.38 52.89 C147.51 63.32, 149.78 75.08, 148.17 85.68 C146.56 96.28, 141.04 107.53, 134.72 116.5 C128.39 125.46, 119.36 134.53, 110.22 139.46 C101.08 144.39, 90.31 145.55, 79.87 146.09 C69.43 146.63, 57.56 146.41, 47.58 142.69 C37.6 138.98, 27.44 131.84, 19.98 123.81 C12.52 115.78, 5.79 105.02, 2.82 94.52 C-0.16 84.02, 0.55 71.07, 2.12 60.8 C3.7 50.52, 6.6 41.5, 12.27 32.89 C17.93 24.28, 26.78 14.56, 36.08 9.12 C45.38 3.67, 57.33 0.98, 68.06 0.21 C78.79 -0.57, 95.01 3.4, 100.47 4.47 C105.93 5.54, 101.22 5.3, 100.81 6.62" stroke="#000000" stroke-width="1" fill="none"></path></g><g stroke-linecap="round"><g transform="translate(431.6263792611312 220.67763260129766) rotate(0 54.03863040699389 -34.934736123339206)"><path d="M0.31 0.36 C32.23 -21.22, 64.9 -39.95, 107.33 -68.16 M-0.19 -0.3 C36.09 -23.92, 70.3 -45.02, 108.26 -70.23" stroke="#000000" stroke-width="1" fill="none"></path></g><g transform="translate(431.6263792611312 220.67763260129766) rotate(0 54.03863040699389 -34.934736123339206)"><path d="M90.59 -45.86 C96.2 -53.28, 102.5 -58.72, 106.41 -68.47 M90.09 -46.52 C96.83 -55.01, 101.28 -61.13, 107.35 -70.53" stroke="#000000" stroke-width="1" fill="none"></path></g><g transform="translate(431.6263792611312 220.67763260129766) rotate(0 54.03863040699389 -34.934736123339206)"><path d="M79.36 -63.04 C88.25 -65.6, 97.8 -66.08, 106.41 -68.47 M78.86 -63.7 C89.35 -66.61, 97.47 -67.12, 107.35 -70.53" stroke="#000000" stroke-width="1" fill="none"></path></g></g><mask></mask><g stroke-linecap="round"><g transform="translate(428.93883068852097 273.6508917828303) rotate(0 60.09135363514099 35.03347025484566)"><path d="M1.36 0.36 C22.72 16.76, 47.9 29.48, 119.48 70.14 M0.7 -0.07 C27.76 15.94, 55.12 33.3, 117.78 69.98" stroke="#000000" stroke-width="1" fill="none"></path></g><g transform="translate(428.93883068852097 273.6508917828303) rotate(0 60.09135363514099 35.03347025484566)"><path d="M89.65 64.81 C92.62 67.61, 99.22 66.96, 119.01 70.72 M88.99 64.38 C95.46 65.35, 102.35 67.98, 117.31 70.55" stroke="#000000" stroke-width="1" fill="none"></path></g><g transform="translate(428.93883068852097 273.6508917828303) rotate(0 60.09135363514099 35.03347025484566)"><path d="M100.09 47.15 C100.83 53.62, 105.24 56.66, 119.01 70.72 M99.44 46.72 C103.53 51.73, 108.01 58.43, 117.31 70.55" stroke="#000000" stroke-width="1" fill="none"></path></g></g><mask></mask><g transform="translate(541.80078125 79.53515625) rotate(0 67.5 37.5)"><text x="67.5" y="18" font-family="Virgil, Segoe UI Emoji" font-size="20px" fill="#000000" text-anchor="middle" style="white-space: pre;" direction="ltr">NkoWorker</text><text x="67.5" y="43" font-family="Virgil, Segoe UI Emoji" font-size="20px" fill="#000000" text-anchor="middle" style="white-space: pre;" direction="ltr"></text><text x="67.5" y="68" font-family="Virgil, Segoe UI Emoji" font-size="20px" fill="#000000" text-anchor="middle" style="white-space: pre;" direction="ltr">(Actually DO)</text></g><g transform="translate(548.20703125 339.63671875) rotate(0 69 37.5)"><text x="69" y="18" font-family="Virgil, Segoe UI Emoji" font-size="20px" fill="#000000" text-anchor="middle" style="white-space: pre;" direction="ltr">OAuth2Worker</text><text x="69" y="43" font-family="Virgil, Segoe UI Emoji" font-size="20px" fill="#000000" text-anchor="middle" style="white-space: pre;" direction="ltr"></text><text x="69" y="68" font-family="Virgil, Segoe UI Emoji" font-size="20px" fill="#000000" text-anchor="middle" style="white-space: pre;" direction="ltr">(Actually DO)</text></g><g stroke-linecap="round" transform="translate(804.79296875 10) rotate(0 86.22265625 80.17578125)"><path d="M0.26 -0.1 C55.41 0.58, 107.91 0.26, 172.61 1.16 M0.88 -0.93 C56.63 -2.11, 112.13 -0.85, 171.87 0.53 M172.42 -0.71 C173.93 35.3, 174.8 72.02, 170.81 162.29 M171.82 0 C170.02 54.3, 170.53 107.76, 171.46 160.88 M171.15 161.79 C125.59 160.81, 80.63 159.93, -1.18 159.55 M172.13 160.54 C120.65 160.17, 68.25 159.56, 0.66 159.85 M-1.95 161.93 C0.82 115.92, 1.54 76.44, -0.27 0.56 M-0.71 160.71 C-1.7 107.18, -0.65 54.41, 0.63 0.16" stroke="#000000" stroke-width="1" fill="none"></path></g><g transform="translate(815.3984375 45.64453125) rotate(0 74.5 12.5)"><text x="74.5" y="18" font-family="Virgil, Segoe UI Emoji" font-size="20px" fill="#000000" text-anchor="middle" style="white-space: pre;" direction="ltr">HumanIDWorker</text></g><g stroke-linecap="round" transform="translate(797.375 306.4140625) rotate(0 86.623046875 86.623046875)"><path d="M-1.9 1.19 C68.06 0.36, 136.82 -1.83, 175.16 -0.76 M-0.06 -0.23 C48.55 1.26, 95.12 2.26, 172.7 -0.15 M174.05 1.24 C172.81 61.78, 171.56 121.04, 172.96 174.19 M172.44 0.03 C174.63 37.84, 174.07 75.09, 172.32 173.72 M174.39 172.79 C123.96 173.82, 74.08 174.28, 0.08 173.3 M173 172.25 C109.09 172.3, 47.3 172.25, -0.2 173.89 M-0.25 175.05 C-0.08 104.24, 2.02 35.5, -0.74 1.18 M-0.17 174.05 C0.58 117.59, 0.11 62.12, 0.21 -0.38" stroke="#000000" stroke-width="1" fill="none"></path></g><g transform="translate(809.09375 366.265625) rotate(0 76.5 25)"><text x="76.5" y="18" font-family="Virgil, Segoe UI Emoji" font-size="20px" fill="#000000" text-anchor="middle" style="white-space: pre;" direction="ltr">ExposureReport</text><text x="76.5" y="43" font-family="Virgil, Segoe UI Emoji" font-size="20px" fill="#000000" text-anchor="middle" style="white-space: pre;" direction="ltr">Worker</text></g><g stroke-linecap="round"><g transform="translate(676.89453125 85.58203125) rotate(0 60.48938853945583 -9.782452552579343)"><path d="M0 0 C0 0, 0 0, 0 0 M0 0 C0 0, 0 0, 0 0 M0.28 -0.44 C30.78 -3.26, 57.27 -6.71, 121 -18.7 M-0.33 0.19 C32.52 -5.22, 64.38 -9.39, 121.31 -19.75" stroke="#000000" stroke-width="1" fill="none"></path></g><g transform="translate(676.89453125 85.58203125) rotate(0 60.48938853945583 -9.782452552579343)"><path d="M93.82 -5.2 C103.2 -8.41, 111.1 -15.56, 120.5 -21.14 M95.96 -4.96 C101.28 -9.2, 109.11 -11.56, 121.33 -19.61" stroke="#000000" stroke-width="1" fill="none"></path></g><g transform="translate(676.89453125 85.58203125) rotate(0 60.48938853945583 -9.782452552579343)"><path d="M90.31 -25.42 C100.65 -21.96, 109.7 -22.46, 120.5 -21.14 M92.45 -25.18 C98.7 -24.31, 107.42 -21.56, 121.33 -19.61" stroke="#000000" stroke-width="1" fill="none"></path></g></g><mask></mask><g stroke-linecap="round"><g transform="translate(656.609375 181.9921875) rotate(0 69.5897544471311 77.02638975675961)"><path d="M-0.58 1.75 C31.69 33.74, 63.75 70.83, 139.76 153.72 M0.2 0.15 C47.74 53.03, 95.42 104.88, 139.05 153.91" stroke="#000000" stroke-width="1" fill="none"></path></g><g transform="translate(656.609375 181.9921875) rotate(0 69.5897544471311 77.02638975675961)"><path d="M111.93 141.75 C118.83 142.09, 125.53 147.49, 140.54 152.75 M112.8 139.94 C121.39 144.98, 131.34 149.25, 139.73 152.96" stroke="#000000" stroke-width="1" fill="none"></path></g><g transform="translate(656.609375 181.9921875) rotate(0 69.5897544471311 77.02638975675961)"><path d="M127.2 128.04 C130.64 131.59, 133.87 140.11, 140.54 152.75 M128.08 126.24 C131.62 135.85, 136.4 144.75, 139.73 152.96" stroke="#000000" stroke-width="1" fill="none"></path></g></g><mask></mask><g stroke-linecap="round"><g transform="translate(662.62890625 316.2734375) rotate(0 69.95460966843598 -86.07327552419292)"><path d="M0.89 -0.09 C30.23 -32.94, 57.98 -69.13, 139.03 -172.6 M0.23 0.45 C45.25 -56.12, 90.55 -112.56, 139.68 -172.12" stroke="#000000" stroke-width="1" fill="none"></path></g><g transform="translate(662.62890625 316.2734375) rotate(0 69.95460966843598 -86.07327552419292)"><path d="M130.79 -143.91 C133.09 -148.54, 134.9 -156.16, 139.44 -172.67 M130.02 -143.28 C132.56 -153.57, 135.4 -162.85, 140.19 -172.12" stroke="#000000" stroke-width="1" fill="none"></path></g><g transform="translate(662.62890625 316.2734375) rotate(0 69.95460966843598 -86.07327552419292)"><path d="M114.91 -156.91 C120.28 -158.83, 125.26 -163.85, 139.44 -172.67 M114.15 -156.29 C121.89 -162.2, 129.94 -167.22, 140.19 -172.12" stroke="#000000" stroke-width="1" fill="none"></path></g></g><mask></mask><g stroke-linecap="round"><g transform="translate(686.09765625 406.22265625) rotate(0 56.61127263400704 2.807722403667867)"><path d="M0.84 0.1 C30.97 3.17, 63.46 2.65, 112.34 3.78 M0.02 -0.13 C31.16 2.01, 60.76 2.8, 113.21 5.74" stroke="#000000" stroke-width="1" fill="none"></path></g><g transform="translate(686.09765625 406.22265625) rotate(0 56.61127263400704 2.807722403667867)"><path d="M85.37 14.63 C91.46 13.58, 99.97 9.26, 111.47 4.78 M84.54 14.4 C92.83 12.96, 99.68 10.14, 112.34 6.74" stroke="#000000" stroke-width="1" fill="none"></path></g><g transform="translate(686.09765625 406.22265625) rotate(0 56.61127263400704 2.807722403667867)"><path d="M86.43 -5.86 C92.3 -1.17, 100.51 0.27, 111.47 4.78 M85.6 -6.09 C93.75 -2.07, 100.31 0.57, 112.34 6.74" stroke="#000000" stroke-width="1" fill="none"></path></g></g><mask></mask><g transform="translate(76.1328125 241.546875) rotate(0 23 12.5)"><text x="23" y="18" font-family="Virgil, Segoe UI Emoji" font-size="20px" fill="#000000" text-anchor="middle" style="white-space: pre;" direction="ltr">User</text></g></svg>